<?xml version="1.0" encoding="UTF-8" standalone="no"?>
<!DOCTYPE svg PUBLIC "-//W3C//DTD SVG 1.1//EN"
 "http://www.w3.org/Graphics/SVG/1.1/DTD/svg11.dtd">
<!-- Generated by graphviz version 2.44.1 (20200629.0800)
 -->
<!-- Title: t Pages: 1 -->
<svg width="730pt" height="283pt"
 viewBox="0.00 0.00 729.50 283.00" xmlns="http://www.w3.org/2000/svg" xmlns:xlink="http://www.w3.org/1999/xlink">
<g id="graph0" class="graph" transform="scale(1 1) rotate(0) translate(4 279)">
<title>t</title>
<polygon fill="white" stroke="transparent" points="-4,4 -4,-279 725.5,-279 725.5,4 -4,4"/>
<!-- CONTROL_0 -->
<g id="node1" class="node">
<title>CONTROL_0</title>
<polygon fill="none" stroke="blue" points="161.35,-114.5 110.65,-114.5 92.6,-78.5 179.4,-78.5 161.35,-114.5"/>
<text text-anchor="middle" x="136" y="-92.8" font-family="Times New Roman,serif" font-size="14.00">bus:0</text>
</g>
<!-- UGEN_4 -->
<g id="node6" class="node">
<title>UGEN_4</title>
<polygon fill="none" stroke="black" points="124,-0.5 124,-36.5 202,-36.5 202,-0.5 124,-0.5"/>
<text text-anchor="middle" x="143" y="-14.8" font-family="Times New Roman,serif" font-size="14.00">Out</text>
<polyline fill="none" stroke="black" points="162,-0.5 162,-36.5 "/>
<text text-anchor="middle" x="172" y="-14.8" font-family="Times New Roman,serif" font-size="14.00"> </text>
<polyline fill="none" stroke="black" points="182,-0.5 182,-36.5 "/>
<text text-anchor="middle" x="192" y="-14.8" font-family="Times New Roman,serif" font-size="14.00"> </text>
</g>
<!-- CONTROL_0&#45;&gt;UGEN_4 -->
<g id="edge4" class="edge">
<title>CONTROL_0&#45;&gt;UGEN_4:IN_0</title>
<path fill="none" stroke="blue" d="M153.58,-78.2C160.72,-69.72 167.95,-58.81 170.77,-47.04"/>
<polygon fill="blue" stroke="blue" points="174.25,-47.35 172,-37 167.31,-46.5 174.25,-47.35"/>
</g>
<!-- CONTROL_1 -->
<g id="node2" class="node">
<title>CONTROL_1</title>
<polygon fill="none" stroke="blue" points="101.27,-275 34.73,-275 11.02,-239 124.98,-239 101.27,-275"/>
<text text-anchor="middle" x="68" y="-253.3" font-family="Times New Roman,serif" font-size="14.00">freq:440</text>
</g>
<!-- UGEN_1 -->
<g id="node3" class="node">
<title>UGEN_1</title>
<polygon fill="none" stroke="black" points="0,-156.5 0,-202.5 112,-202.5 112,-156.5 0,-156.5"/>
<text text-anchor="middle" x="29" y="-187.3" font-family="Times New Roman,serif" font-size="14.00">SinOsc</text>
<polyline fill="none" stroke="black" points="58,-179.5 58,-202.5 "/>
<text text-anchor="middle" x="68" y="-187.3" font-family="Times New Roman,serif" font-size="14.00"> </text>
<polyline fill="none" stroke="black" points="78,-179.5 78,-202.5 "/>
<text text-anchor="middle" x="95" y="-187.3" font-family="Times New Roman,serif" font-size="14.00">0.0</text>
<polyline fill="none" stroke="black" points="0,-179.5 112,-179.5 "/>
<text text-anchor="middle" x="56" y="-164.3" font-family="Times New Roman,serif" font-size="14.00"> </text>
</g>
<!-- CONTROL_1&#45;&gt;UGEN_1 -->
<g id="edge1" class="edge">
<title>CONTROL_1&#45;&gt;UGEN_1:IN_0</title>
<path fill="none" stroke="blue" d="M68,-238.81C68,-231.28 68,-222.1 68,-213.06"/>
<polygon fill="blue" stroke="blue" points="71.5,-213 68,-203 64.5,-213 71.5,-213"/>
</g>
<!-- UGEN_3 -->
<g id="node5" class="node">
<title>UGEN_3</title>
<polygon fill="none" stroke="black" points="197.5,-73.5 197.5,-119.5 260.5,-119.5 260.5,-73.5 197.5,-73.5"/>
<text text-anchor="middle" x="209" y="-104.3" font-family="Times New Roman,serif" font-size="14.00">*</text>
<polyline fill="none" stroke="black" points="220.5,-96.5 220.5,-119.5 "/>
<text text-anchor="middle" x="230.5" y="-104.3" font-family="Times New Roman,serif" font-size="14.00"> </text>
<polyline fill="none" stroke="black" points="240.5,-96.5 240.5,-119.5 "/>
<text text-anchor="middle" x="250.5" y="-104.3" font-family="Times New Roman,serif" font-size="14.00"> </text>
<polyline fill="none" stroke="black" points="197.5,-96.5 260.5,-96.5 "/>
<text text-anchor="middle" x="229" y="-81.3" font-family="Times New Roman,serif" font-size="14.00"> </text>
</g>
<!-- UGEN_1&#45;&gt;UGEN_3 -->
<g id="edge2" class="edge">
<title>UGEN_1:OUT_0&#45;&gt;UGEN_3:IN_0</title>
<path fill="none" stroke="black" d="M113,-167.5C119.23,-167.5 116,-159.72 121,-156 159.05,-127.69 220.43,-164.7 229.79,-130.35"/>
<polygon fill="black" stroke="black" points="233.31,-130.34 231,-120 226.36,-129.52 233.31,-130.34"/>
</g>
<!-- UGEN_2 -->
<g id="node4" class="node">
<title>UGEN_2</title>
<polygon fill="none" stroke="blue" points="130.5,-156.5 130.5,-202.5 721.5,-202.5 721.5,-156.5 130.5,-156.5"/>
<text text-anchor="middle" x="161.5" y="-187.3" font-family="Times New Roman,serif" font-size="14.00">EnvGen</text>
<polyline fill="none" stroke="blue" points="192.5,-179.5 192.5,-202.5 "/>
<text text-anchor="middle" x="209.5" y="-187.3" font-family="Times New Roman,serif" font-size="14.00">1.0</text>
<polyline fill="none" stroke="blue" points="226.5,-179.5 226.5,-202.5 "/>
<text text-anchor="middle" x="243.5" y="-187.3" font-family="Times New Roman,serif" font-size="14.00">0.3</text>
<polyline fill="none" stroke="blue" points="260.5,-179.5 260.5,-202.5 "/>
<text text-anchor="middle" x="277.5" y="-187.3" font-family="Times New Roman,serif" font-size="14.00">0.0</text>
<polyline fill="none" stroke="blue" points="294.5,-179.5 294.5,-202.5 "/>
<text text-anchor="middle" x="311.5" y="-187.3" font-family="Times New Roman,serif" font-size="14.00">1.0</text>
<polyline fill="none" stroke="blue" points="328.5,-179.5 328.5,-202.5 "/>
<text text-anchor="middle" x="340" y="-187.3" font-family="Times New Roman,serif" font-size="14.00">2</text>
<polyline fill="none" stroke="blue" points="351.5,-179.5 351.5,-202.5 "/>
<text text-anchor="middle" x="363" y="-187.3" font-family="Times New Roman,serif" font-size="14.00">0</text>
<polyline fill="none" stroke="blue" points="374.5,-179.5 374.5,-202.5 "/>
<text text-anchor="middle" x="386" y="-187.3" font-family="Times New Roman,serif" font-size="14.00">2</text>
<polyline fill="none" stroke="blue" points="397.5,-179.5 397.5,-202.5 "/>
<text text-anchor="middle" x="415" y="-187.3" font-family="Times New Roman,serif" font-size="14.00">&#45;99</text>
<polyline fill="none" stroke="blue" points="432.5,-179.5 432.5,-202.5 "/>
<text text-anchor="middle" x="450" y="-187.3" font-family="Times New Roman,serif" font-size="14.00">&#45;99</text>
<polyline fill="none" stroke="blue" points="467.5,-179.5 467.5,-202.5 "/>
<text text-anchor="middle" x="484.5" y="-187.3" font-family="Times New Roman,serif" font-size="14.00">1.0</text>
<polyline fill="none" stroke="blue" points="501.5,-179.5 501.5,-202.5 "/>
<text text-anchor="middle" x="522" y="-187.3" font-family="Times New Roman,serif" font-size="14.00">0.01</text>
<polyline fill="none" stroke="blue" points="542.5,-179.5 542.5,-202.5 "/>
<text text-anchor="middle" x="554" y="-187.3" font-family="Times New Roman,serif" font-size="14.00">5</text>
<polyline fill="none" stroke="blue" points="565.5,-179.5 565.5,-202.5 "/>
<text text-anchor="middle" x="584.5" y="-187.3" font-family="Times New Roman,serif" font-size="14.00">&#45;4.0</text>
<polyline fill="none" stroke="blue" points="603.5,-179.5 603.5,-202.5 "/>
<text text-anchor="middle" x="615" y="-187.3" font-family="Times New Roman,serif" font-size="14.00">0</text>
<polyline fill="none" stroke="blue" points="626.5,-179.5 626.5,-202.5 "/>
<text text-anchor="middle" x="643.5" y="-187.3" font-family="Times New Roman,serif" font-size="14.00">1.0</text>
<polyline fill="none" stroke="blue" points="660.5,-179.5 660.5,-202.5 "/>
<text text-anchor="middle" x="672" y="-187.3" font-family="Times New Roman,serif" font-size="14.00">5</text>
<polyline fill="none" stroke="blue" points="683.5,-179.5 683.5,-202.5 "/>
<text text-anchor="middle" x="702.5" y="-187.3" font-family="Times New Roman,serif" font-size="14.00">&#45;4.0</text>
<polyline fill="none" stroke="blue" points="130.5,-179.5 721.5,-179.5 "/>
<text text-anchor="middle" x="426" y="-164.3" font-family="Times New Roman,serif" font-size="14.00"> </text>
</g>
<!-- UGEN_2&#45;&gt;UGEN_3 -->
<g id="edge3" class="edge">
<title>UGEN_2:OUT_0&#45;&gt;UGEN_3:IN_1</title>
<path fill="none" stroke="blue" d="M129,-167.5C123.87,-167.5 126.72,-159.94 130,-156 168.65,-109.61 222.35,-166.39 261,-120 261.31,-119.63 261.61,-119.23 261.91,-118.81"/>
<polygon fill="blue" stroke="blue" points="265.41,-118.53 262,-108.5 258.41,-118.47 265.41,-118.53"/>
</g>
<!-- UGEN_3&#45;&gt;UGEN_4 -->
<g id="edge5" class="edge">
<title>UGEN_3:OUT_0&#45;&gt;UGEN_4:IN_1</title>
<path fill="none" stroke="black" d="M196,-84.5C187.72,-84.5 189.94,-61.97 191.3,-47.07"/>
<polygon fill="black" stroke="black" points="194.8,-47.22 192,-37 187.82,-46.73 194.8,-47.22"/>
</g>
</g>
</svg>
